<svg width="92" height="82" viewBox="0 0 92 82" fill="none" xmlns="http://www.w3.org/2000/svg">
<path d="M6.01562 44.5278C6.01562 32.1444 12.2957 21.1954 21.8332 14.7256" stroke="white" stroke-width="1.5" stroke-linecap="round" stroke-linejoin="round" stroke-dasharray="10.68 0"/>
<path d="M59.6604 75.9987C58.5453 76.6135 57.4008 77.1697 56.2269 77.6674C51.8837 79.5117 47.1003 80.5364 42.1115 80.5364C33.7478 80.5364 26.0298 77.6967 19.8965 72.9248" stroke="white" stroke-width="1.5" stroke-linecap="round" stroke-linejoin="round" stroke-dasharray="10.68 0"/>
<path d="M59.6602 13.0566C70.7236 19.2044 78.2069 31.0024 78.2069 44.5275" stroke="white" stroke-width="1.5" stroke-linecap="round" stroke-linejoin="round" stroke-dasharray="10.68 0"/>
<path d="M47.1299 8.6366L54.4664 3.19141" stroke="white" stroke-width="1.5" stroke-linecap="round" stroke-linejoin="round"/>
<path d="M28.1426 1.46387H56.2855V20.3757H28.1426V3.45458L37.2986 8.78268" stroke="white" stroke-width="1.5" stroke-linecap="round" stroke-linejoin="round"/>
<path d="M43.2263 12.7061C42.6687 13.5843 41.9938 13.9649 41.0547 13.9649C40.1156 13.9649 39.382 13.2623 39.382 12.0913C39.382 10.2469 40.908 8.34404 43.0796 8.54897C43.3143 8.54897 43.4024 8.57824 43.4317 8.57824C43.8426 8.66607 44.0773 8.98809 44.0773 9.42722L43.6665 11.2423M44.4882 15.8971C43.6371 16.3362 42.7568 16.4826 41.7003 16.4826C39.1472 16.4826 36.9756 14.6968 36.9756 11.8278C36.9756 8.75389 39.2059 6.08984 42.6687 6.08984C45.3686 6.08984 47.2174 7.90491 47.2174 10.3933C47.2174 12.6475 45.8968 13.9356 44.4295 13.9356C43.8132 13.9356 43.1383 13.7014 43.197 12.7939" stroke="white" stroke-width="1.5" stroke-linecap="round" stroke-linejoin="round"/>
<path d="M88.7427 57.0576V70.817H65.1191V57.0576" stroke="white" stroke-width="1.5" stroke-linecap="round" stroke-linejoin="round"/>
<path d="M90.533 55.6814C89.3885 57.0573 86.7767 57.0866 85.5735 55.74V55.6814L85.2507 56.0034C84.1649 57.2915 81.7585 57.4086 80.4966 56.2376L79.8803 55.6814L79.4695 56.1205C78.2957 57.3501 75.8893 57.3794 74.6861 56.1205L74.2459 55.6814L74.0405 55.9156C72.9253 57.233 70.4309 57.2915 69.1984 56.0327L68.8462 55.6814L68.6114 55.9742C67.5256 57.2623 65.0606 57.3794 63.7987 56.1498L63.2998 55.6814L65.2366 48.7432H88.5668L90.5036 55.6814H90.533Z" stroke="white" stroke-width="1.5" stroke-linecap="round" stroke-linejoin="round"/>
<path d="M80.4967 61.2734H73.7178V70.8172H80.4967V61.2734Z" stroke="white" stroke-width="1.5" stroke-linecap="round" stroke-linejoin="round"/>
<path d="M13.1199 65.4527H7.54418V54.2696H22.1585V68.5266L19.1652 65.4527H16.5534C15.673 65.4527 14.9394 66.1846 14.9394 67.0628V74.733C14.9394 75.4941 14.3231 76.1089 13.5601 76.1089H2.1445C1.49888 76.1089 1 75.6112 1 74.9672V50.3467C1 49.5855 1.61627 49 2.34992 49H13.5601C14.3231 49 14.9394 49.6148 14.9394 50.3759V52.4838" stroke="white" stroke-width="1.5" stroke-linecap="round" stroke-linejoin="round"/>
<path d="M38.2959 48.0989L45.9259 39.2285" stroke="white" stroke-width="1.5" stroke-linecap="round" stroke-linejoin="round"/>
<path d="M46.1318 49.3579C47.4122 49.3579 48.4502 48.3225 48.4502 47.0452C48.4502 45.7679 47.4122 44.7324 46.1318 44.7324C44.8514 44.7324 43.8135 45.7679 43.8135 47.0452C43.8135 48.3225 44.8514 49.3579 46.1318 49.3579Z" stroke="white" stroke-width="1.5" stroke-linecap="round" stroke-linejoin="round"/>
<path d="M38.0908 43.0054C39.3712 43.0054 40.4091 41.9699 40.4091 40.6926C40.4091 39.4153 39.3712 38.3799 38.0908 38.3799C36.8104 38.3799 35.7725 39.4153 35.7725 40.6926C35.7725 41.9699 36.8104 43.0054 38.0908 43.0054Z" stroke="white" stroke-width="1.5" stroke-linecap="round" stroke-linejoin="round"/>
<path d="M42.9038 32.2322L45.457 30.1537C46.1613 29.5682 47.2177 29.9195 47.4525 30.7977L48.3035 33.9887C48.4503 34.5743 48.9785 34.9548 49.5948 34.9256L52.8815 34.7499C53.7912 34.6914 54.4369 35.5989 54.114 36.4479L52.9402 39.5218C52.7348 40.078 52.9402 40.6928 53.4391 41.0148L56.1976 42.8006C56.9606 43.2983 56.9606 44.4107 56.1976 44.9084L53.4391 46.6942C52.9402 47.0162 52.7348 47.631 52.9402 48.1872L54.114 51.2612C54.4369 52.1101 53.7912 53.0177 52.8815 52.9591L49.5948 52.7835C49.0078 52.7542 48.4796 53.1348 48.3035 53.7203L47.4525 56.9113C47.2177 57.7895 46.1613 58.1408 45.457 57.5553L42.9038 55.4768C42.4343 55.0962 41.7887 55.0962 41.3192 55.4768L38.766 57.5553C38.0617 58.1408 37.0053 57.7895 36.7705 56.9113L35.9195 53.7203C35.7727 53.1348 35.2445 52.7542 34.6282 52.7835L31.3415 52.9591C30.4318 53.0177 29.7861 52.1101 30.1089 51.2612L31.2828 48.1872C31.4882 47.631 31.2828 47.0162 30.7839 46.6942L28.0254 44.9084C27.2624 44.4107 27.2624 43.2983 28.0254 42.8006L30.7839 41.0148C31.2828 40.6928 31.4882 40.078 31.2828 39.5218L30.1089 36.4479C29.7861 35.5989 30.4318 34.6914 31.3415 34.7499L34.6282 34.9256C35.2152 34.9548 35.7434 34.5743 35.9195 33.9887L36.7705 30.7977C37.0053 29.9195 38.0617 29.5682 38.766 30.1537L41.3192 32.2322C41.7887 32.6128 42.4343 32.6128 42.9038 32.2322Z" stroke="white" stroke-width="1.5" stroke-linecap="round" stroke-linejoin="round"/>
</svg>
