<svg width="135" height="63" viewBox="0 0 135 63" fill="none" xmlns="http://www.w3.org/2000/svg">
<path d="M134.177 22.3106C133.551 22.3106 133.078 22.6208 132.683 23.063C132.156 23.6504 131.919 24.3434 131.919 25.1288C131.919 31.0028 131.919 36.8834 131.919 42.7574C131.919 44.1896 131.676 45.5624 131.031 46.8494C130.024 48.8624 128.398 50.1956 126.357 51.047C124.297 51.905 122.145 52.1294 119.934 51.9512C118.314 51.8192 116.768 51.4298 115.32 50.684C112.931 49.4498 111.331 47.582 110.719 44.9222C110.548 44.1764 110.502 43.4174 110.502 42.6518C110.502 36.8372 110.508 31.0226 110.515 25.208C110.515 24.7196 110.449 24.251 110.239 23.8022C109.85 22.997 109.258 22.4294 108.35 22.2578H117.748C116.656 22.4954 116.024 23.2148 115.695 24.2444C115.603 24.5414 115.583 24.845 115.583 25.1552C115.583 31.2404 115.583 37.3322 115.596 43.4174C115.596 46.2884 117.755 48.7304 120.526 49.0604C123.343 49.3904 126.028 47.4962 126.68 44.7176C126.785 44.2754 126.838 43.82 126.838 43.3646C126.838 37.2794 126.838 31.1876 126.838 25.1024C126.838 24.152 126.483 23.3666 125.752 22.7594C125.436 22.4954 125.067 22.3568 124.666 22.271C124.705 22.271 124.751 22.2644 124.791 22.2644C127.858 22.2644 130.925 22.2644 133.992 22.2644C134.052 22.2644 134.117 22.2644 134.177 22.2644V22.3172V22.3106Z" fill="#FC0000"/>
<path d="M45.2046 62.7229C45.2177 62.6503 45.2704 62.6041 45.3296 62.5645C47.3963 61.0003 48.6008 58.8949 49.1997 56.4067C49.3972 55.5883 49.5025 54.7567 49.4959 53.9119C49.4893 44.3551 49.4828 34.7983 49.4828 25.2481C49.4828 24.3769 49.2458 23.6113 48.6403 22.9777C48.2783 22.6015 47.8439 22.3705 47.3239 22.2715H56.7359C55.2945 22.6873 54.5639 23.6707 54.5639 25.1689C54.5639 34.3033 54.5639 43.4377 54.5705 52.5721C54.5705 54.4201 54.2019 56.1691 53.2081 57.7531C52.1286 59.4757 50.5951 60.6703 48.7851 61.5415C47.7057 62.0629 46.5736 62.4391 45.3889 62.6701C45.3362 62.6767 45.2901 62.7031 45.2441 62.7229H45.1914H45.2046Z" fill="#FC0000"/>
<path d="M20.1735 22.2578H29.5526C29.5526 22.2578 29.5526 22.2776 29.5526 22.2842C29.421 22.3172 29.2893 22.3502 29.1577 22.3964C28.2363 22.7066 27.4728 23.756 27.4135 24.7856C27.4135 24.8978 27.407 25.01 27.407 25.1288C27.407 31.2272 27.407 37.319 27.407 43.4174C27.407 46.0706 29.2564 48.3938 31.7904 48.9614C34.6667 49.6082 37.589 47.8526 38.4183 44.975C38.5631 44.4668 38.6421 43.952 38.6421 43.424C38.6421 37.2992 38.6421 31.181 38.6421 25.0562C38.6421 24.086 38.2538 23.294 37.4837 22.7C37.1941 22.4756 36.865 22.3568 36.5096 22.271H45.8953C45.349 22.3766 44.8751 22.6274 44.4999 23.0498C43.9668 23.6438 43.7167 24.3368 43.7167 25.1354C43.7167 31.0094 43.7167 36.89 43.7167 42.764C43.7167 44.051 43.5258 45.2918 43.0059 46.4732C42.0844 48.5852 40.4916 50.0174 38.4183 50.9414C36.2924 51.8918 34.0612 52.1492 31.7575 51.9644C30.066 51.8324 28.4469 51.4232 26.9528 50.6114C23.8528 48.9152 22.2929 46.295 22.2995 42.7442C22.306 36.8966 22.306 31.0424 22.3126 25.1948C22.3126 24.746 22.2534 24.3038 22.0691 23.888C21.6874 23.0432 21.095 22.4492 20.1406 22.2644L20.1735 22.2578Z" fill="#FC0000"/>
<path d="M89.459 46.0644C90.7819 47.6946 92.6051 48.2952 94.5007 48.7374C95.3563 48.9354 96.2251 49.1334 97.1136 49.0542C98.7723 48.9156 100.365 48.5592 101.701 47.49C102.794 46.6188 103.432 45.4902 103.531 44.0778C103.577 43.398 103.333 42.7908 102.952 42.2364C102.491 41.5764 101.872 41.1012 101.168 40.725C99.0421 39.5832 96.9096 38.4678 94.7968 37.3062C93.2106 36.435 91.8284 35.3064 90.8214 33.762C89.3471 31.5114 89.3537 29.1486 90.3936 26.7528C91.394 24.456 93.2172 23.0634 95.5472 22.311C97.4361 21.6972 99.3778 21.5718 101.346 21.6972C102.484 21.7698 103.63 21.849 104.749 22.0998C105.045 22.1658 105.341 22.245 105.617 22.3902C105.729 22.4496 105.808 22.5222 105.808 22.674C105.808 24.0468 105.808 25.4262 105.808 26.799C105.808 26.832 105.808 26.8584 105.795 26.9112C105.756 26.8782 105.729 26.8716 105.716 26.8518C104.854 25.5582 103.57 24.9576 102.096 24.7332C100.655 24.522 99.2198 24.5748 97.8245 25.0302C95.1325 25.9146 94.4414 28.383 94.8561 30.2508C95.1193 31.4454 95.9355 32.2638 96.9623 32.838C98.5682 33.7356 100.207 34.5804 101.833 35.4516C102.932 36.039 104.064 36.5802 105.064 37.3392C106.48 38.415 107.625 39.7086 108.165 41.4378C108.849 43.6224 108.454 45.6816 107.263 47.5956C106.137 49.3974 104.446 50.4732 102.478 51.153C100.832 51.714 99.1343 51.9384 97.4098 51.9912C95.896 52.0308 94.3888 52.0176 92.8881 51.7866C92.355 51.7074 91.8219 51.5952 91.3085 51.4236C91.19 51.384 91.1242 51.3312 91.0781 51.2058C90.545 49.5294 90.0119 47.8596 89.4787 46.1832C89.4721 46.1568 89.4787 46.1304 89.4656 46.0644H89.459Z" fill="#FC0000"/>
<path d="M0.5 51.2516C1.92825 50.8754 2.73124 49.8326 2.73124 48.4268C2.73124 40.6454 2.73124 32.8574 2.73124 25.076C2.73124 23.954 2.25735 23.0696 1.25033 22.5086C1.03313 22.3898 0.796181 22.3502 0.565817 22.2644C0.651381 22.2644 0.736944 22.2644 0.822508 22.2644C6.91727 22.2644 13.0186 22.2644 19.1134 22.2644C19.5083 22.2644 19.4556 22.2314 19.4622 22.6208C19.4622 24.086 19.4622 25.5446 19.4688 27.0098C19.4688 27.0956 19.4688 27.1814 19.4688 27.3464C19.3898 27.0824 19.3503 26.8778 19.2713 26.6996C18.8764 25.8152 18.159 25.3598 17.231 25.2146C17.0401 25.1816 16.8492 25.1816 16.6584 25.1816C13.8216 25.1816 10.9783 25.1816 8.14149 25.175C7.87164 25.175 7.8124 25.2476 7.8124 25.5116C7.82556 28.277 7.8124 31.049 7.81898 33.8144C7.81898 34.2038 7.74 34.184 8.1744 34.184C11.0572 34.184 13.9401 34.184 16.8229 34.184C17.2705 34.184 17.1915 34.1642 17.1981 34.5668C17.1981 36.1178 17.1981 37.6688 17.1981 39.2528C17.0993 39.1076 17.1125 38.9756 17.0796 38.8502C16.7966 37.8668 15.8027 37.1078 14.6838 37.0946C12.4657 37.0748 10.2477 37.0946 8.0296 37.0814C7.8124 37.0814 7.81898 37.1936 7.81898 37.3454C7.81898 39.6026 7.81898 41.8664 7.81898 44.1236C7.81898 45.6152 7.8124 47.1002 7.81898 48.5918C7.82556 49.694 8.58247 50.7896 9.55 51.1262C9.6948 51.179 9.84618 51.2054 10.0634 51.2648H0.506581L0.5 51.2516Z" fill="#FC0000"/>
<path d="M83.6487 51.2523H74.2894C74.2894 51.193 74.342 51.193 74.3684 51.193C75.5004 51.0148 76.3429 49.7938 76.4021 48.6916C76.4087 48.5596 76.4087 48.4276 76.4087 48.2956C76.4087 40.7056 76.4087 33.109 76.4087 25.519C76.4087 25.1626 76.468 25.1758 76.0796 25.1758C74.6316 25.1758 73.1771 25.2022 71.7291 25.1692C70.2218 25.1362 69.1095 25.8226 68.2275 26.9842C68.1749 27.0568 68.1288 27.1294 68.0827 27.202C68.0367 27.2746 67.984 27.3406 67.8984 27.4C68.0761 26.8258 68.2538 26.2516 68.425 25.6774C68.7475 24.6148 69.0766 23.5522 69.3925 22.4896C69.4452 22.3246 69.511 22.252 69.6953 22.252C76.3495 22.252 83.0103 22.252 89.6645 22.252C89.7172 22.252 89.7698 22.252 89.862 22.2586C89.3354 23.9878 88.8154 25.7038 88.2955 27.4132C88.1902 26.7598 87.9401 26.1988 87.4464 25.7566C86.9857 25.354 86.446 25.156 85.8405 25.156C84.478 25.156 83.1156 25.1692 81.7532 25.156C81.4767 25.156 81.4965 25.3078 81.4965 25.4926C81.4965 30.1786 81.4965 34.8646 81.4965 39.544C81.4965 42.4876 81.4965 45.4311 81.4965 48.3681C81.4965 49.3449 81.8585 50.1568 82.6285 50.7706C82.9247 51.0082 83.2801 51.1402 83.6553 51.2457L83.6487 51.2523Z" fill="#FC0000"/>
<path d="M56.6222 14.5625C56.6222 15.6119 56.6222 16.6613 56.6222 17.7107C56.6222 17.8361 56.5432 17.9021 56.4774 17.9747C55.2729 19.2749 53.792 20.0339 52.0281 20.1593C49.2835 20.3507 47.0917 19.3079 45.6372 16.9583C43.5244 13.5395 45.0645 9.0713 48.8557 7.6127C51.5411 6.5765 54.0224 7.02529 56.1417 9.00529C57.1093 9.90949 57.9452 10.9523 58.8469 11.9357C61.473 14.8001 66.2185 14.3579 68.2655 11.0579C70.2729 7.8239 68.5616 3.5801 64.8297 2.5505C62.2431 1.8377 59.5906 2.8013 57.9386 5.0519C57.4055 5.7779 57.004 6.56329 56.6551 7.48069C56.6485 7.34869 56.642 7.2827 56.642 7.2233C56.642 5.9957 56.642 4.7681 56.642 3.5471C56.642 3.4085 56.6749 3.3029 56.767 3.1907C58.2084 1.4681 60.0119 0.339495 62.2563 0.062295C66.5739 -0.465705 70.5823 2.41849 71.3787 6.59629C72.2014 10.8731 69.4239 14.9783 65.172 15.9419C62.2497 16.6085 59.6104 15.9419 57.4186 13.8563C56.4248 12.9125 55.5691 11.8301 54.6213 10.8335C53.4037 9.5531 51.8965 9.1439 50.2181 9.6257C48.5397 10.1009 47.4867 11.2493 47.1641 12.9851C46.7495 15.2225 48.4213 17.4731 50.692 17.8031C53.0088 18.1397 54.7464 17.1959 56.0693 15.3479C56.2536 15.0905 56.405 14.8199 56.5761 14.5559C56.5893 14.5559 56.6091 14.5625 56.6222 14.5691V14.5625Z" fill="#FC0000"/>
<path d="M58.4468 51.2254C58.6047 51.1792 58.7627 51.1528 58.9075 51.0868C59.9277 50.638 60.4213 49.8196 60.5661 48.7438C60.5858 48.6052 60.5793 48.4666 60.5793 48.3214C60.5793 40.5796 60.5793 32.8444 60.5793 25.1026C60.5793 24.1522 60.2568 23.3602 59.5196 22.753C59.2037 22.4956 58.8351 22.357 58.4336 22.2646H67.8522C66.4568 22.5946 65.6407 23.6308 65.6407 25.03C65.6407 32.8246 65.6407 40.6126 65.6407 48.4072C65.6407 49.5292 66.1212 50.4136 67.1084 50.9878C67.319 51.1066 67.556 51.1595 67.7929 51.2387H58.4336C58.4336 51.2387 58.4336 51.2254 58.4336 51.2188L58.4468 51.2254Z" fill="#FC0000"/>
</svg>
