<?xml version="1.0" encoding="UTF-8"?>
<svg id="Layer_1" data-name="Layer 1" xmlns="http://www.w3.org/2000/svg" width="140.33" height="78.67" viewBox="0 0 140.33 78.67">
  <defs>
    <style>
      .cls-1 {
        fill: #252f3e;
      }

      .cls-2 {
        fill: #ff9700;
        fill-rule: evenodd;
      }
    </style>
  </defs>
  <path class="cls-1" d="m55.39,37.96c0,.78.08,1.41.23,1.87.17.46.38.97.67,1.51.1.17.15.34.15.48,0,.21-.13.42-.4.63l-1.32.88c-.19.13-.38.19-.55.19-.21,0-.42-.1-.63-.29-.29-.31-.55-.65-.76-.99-.21-.36-.42-.76-.65-1.24-1.64,1.93-3.7,2.9-6.17,2.9-1.76,0-3.17-.5-4.2-1.51-1.03-1.01-1.55-2.35-1.55-4.03,0-1.78.63-3.23,1.91-4.33s2.98-1.64,5.14-1.64c.71,0,1.45.06,2.23.17s1.57.27,2.41.46v-1.53c0-1.6-.34-2.71-.99-3.36-.67-.65-1.81-.97-3.42-.97-.73,0-1.49.08-2.27.27s-1.53.42-2.27.71c-.34.15-.59.23-.73.27s-.25.06-.34.06c-.29,0-.44-.21-.44-.65v-1.03c0-.34.04-.59.15-.73s.29-.29.59-.44c.73-.38,1.62-.69,2.65-.94,1.03-.27,2.12-.4,3.28-.4,2.5,0,4.33.57,5.5,1.7,1.15,1.13,1.74,2.86,1.74,5.17v6.8h.04Zm-8.53,3.19c.69,0,1.41-.13,2.16-.38.76-.25,1.43-.71,1.99-1.34.34-.4.59-.84.71-1.34s.21-1.11.21-1.83v-.88c-.61-.15-1.26-.27-1.93-.36s-1.32-.13-1.97-.13c-1.41,0-2.44.27-3.13.84s-1.03,1.36-1.03,2.41c0,.99.25,1.72.78,2.23.5.52,1.24.78,2.2.78h0Zm16.86,2.27c-.38,0-.63-.06-.8-.21-.17-.13-.31-.42-.44-.82l-4.93-16.23c-.13-.42-.19-.69-.19-.84,0-.34.17-.52.5-.52h2.06c.4,0,.67.06.82.21.17.13.29.42.42.82l3.53,13.9,3.28-13.9c.1-.42.23-.69.4-.82s.46-.21.84-.21h1.68c.4,0,.67.06.84.21.17.13.31.42.4.82l3.32,14.07,3.63-14.07c.13-.42.27-.69.42-.82.17-.13.44-.21.82-.21h1.95c.34,0,.52.17.52.52,0,.1-.02.21-.04.34-.02.13-.06.29-.15.52l-5.06,16.23c-.13.42-.27.69-.44.82s-.44.21-.8.21h-1.81c-.4,0-.67-.06-.84-.21s-.31-.42-.4-.84l-3.25-13.54-3.23,13.52c-.1.42-.23.69-.4.84s-.46.21-.84.21h-1.81Zm26.98.57c-1.09,0-2.18-.13-3.23-.38s-1.87-.52-2.41-.84c-.34-.19-.57-.4-.65-.59s-.13-.4-.13-.59v-1.07c0-.44.17-.65.48-.65.13,0,.25.02.38.06s.31.13.52.21c.71.31,1.49.57,2.31.73.84.17,1.66.25,2.5.25,1.32,0,2.35-.23,3.07-.69s1.09-1.13,1.09-1.99c0-.59-.19-1.07-.57-1.47s-1.09-.76-2.12-1.09l-3.04-.94c-1.53-.48-2.67-1.2-3.36-2.14-.69-.92-1.05-1.95-1.05-3.04,0-.88.19-1.66.57-2.33s.88-1.26,1.51-1.72c.63-.48,1.34-.84,2.18-1.09s1.72-.36,2.65-.36c.46,0,.94.02,1.41.08.48.06.92.15,1.36.23.42.1.82.21,1.2.34.38.13.67.25.88.38.29.17.5.34.63.52.13.17.19.4.19.69v.99c0,.44-.17.67-.48.67-.17,0-.44-.08-.8-.25-1.2-.55-2.54-.82-4.03-.82-1.2,0-2.14.19-2.79.59s-.99,1.01-.99,1.87c0,.59.21,1.09.63,1.49s1.2.8,2.31,1.15l2.98.94c1.51.48,2.6,1.15,3.25,2.02s.97,1.85.97,2.94c0,.9-.19,1.72-.55,2.44-.38.71-.88,1.34-1.53,1.85-.65.52-1.43.9-2.33,1.18-.94.29-1.93.44-3,.44h0Z"/>
  <g>
    <path class="cls-2" d="m94.68,54.19c-6.91,5.1-16.95,7.81-25.58,7.81-12.1,0-22.99-4.47-31.23-11.91-.65-.59-.06-1.39.71-.92,8.9,5.17,19.89,8.29,31.25,8.29,7.66,0,16.09-1.6,23.83-4.87,1.15-.52,2.14.76,1.01,1.6Z"/>
    <path class="cls-2" d="m97.55,50.92c-.88-1.13-5.84-.55-8.08-.27-.67.08-.78-.5-.17-.94,3.95-2.77,10.44-1.97,11.19-1.05.76.94-.21,7.43-3.91,10.54-.57.48-1.11.23-.86-.4.84-2.08,2.71-6.76,1.83-7.87Z"/>
  </g>
</svg>