<svg width="103" height="103" viewBox="0 0 103 103" fill="none" xmlns="http://www.w3.org/2000/svg">
<path d="M45.1724 74.4111H63.6901C63.6901 74.4111 70.0563 74.4111 70.0563 68.0449C70.0563 61.6787 63.6901 61.6787 63.6901 61.6787H23.1927C23.1927 61.6787 2.17734 79.4181 1.01562 79.4181" stroke="#009C5E" stroke-width="1.5" stroke-linecap="round" stroke-linejoin="round"/>
<path d="M71.787 68.6271L91.4548 50.1094C91.4548 50.1094 95.5092 47.2167 99.552 51.2711C103.606 55.3254 99.552 60.5299 99.552 60.5299L75.2489 85.9831C75.2489 85.9831 69.4636 92.9301 56.7312 92.9301H25.4927L15.9551 101.573" stroke="#009C5E" stroke-width="1.5" stroke-linecap="round" stroke-linejoin="round"/>
<path d="M60.276 33.6824C67.7574 35.8897 72.9038 41.8957 73.2988 48.4013V48.8893C73.2988 50.9803 71.6027 52.6648 69.5232 52.6648H23.7053C21.6142 52.6648 19.9297 50.9687 19.9297 48.8893V48.4013C20.3711 40.978 27.0045 34.2168 36.2401 32.9854L36.7745 32.9041C39.0631 32.5556 41.3052 33.1596 43.5822 33.6011C44.9879 33.8683 44.8601 33.9031 46.3935 33.9031M46.3819 33.9148C54.3861 33.9148 58.3824 25.2948 58.3824 16.3845C58.3824 9.92537 57.4647 6.23112 54.6882 3.76829C52.2253 1.61912 50.1923 0.945327 46.0799 1.00341C40.5385 1.08473 33.7773 3.46624 33.7773 14.2353C33.7773 19.4979 35.485 24.0053 37.4135 27.3859" stroke="black" stroke-width="1.5" stroke-linecap="round" stroke-linejoin="round"/>
<path d="M28.0254 55.8833L37.2151 45.0444L46.7876 45.8112L70.7654 23.2158" stroke="#009C5E" stroke-width="1.5" stroke-linecap="round" stroke-linejoin="round"/>
<path d="M63.957 22.5879H71.1132V29.7208" stroke="#009C5E" stroke-width="1.5" stroke-linecap="round" stroke-linejoin="round"/>
</svg>
